<?xml version="1.0" standalone="no"?>
<!DOCTYPE svg PUBLIC "-//W3C//DTD SVG 20010904//EN"
 "http://www.w3.org/TR/2001/REC-SVG-20010904/DTD/svg10.dtd">
<svg version="1.0" xmlns="http://www.w3.org/2000/svg"
 width="10.000000pt" height="10.000000pt" viewBox="0 0 1200.000000 1200.000000"
 preserveAspectRatio="xMidYMid meet">

<g transform="translate(0.000000,1200.000000) scale(0.100000,-0.100000)"
fill="#000000" stroke="none">
<path d="M4520 11390 c-1062 -82 -2004 -519 -2730 -1266 -449 -463 -768 -987
-970 -1594 -245 -734 -284 -1508 -115 -2258 139 -617 420 -1199 821 -1702 130
-164 477 -512 629 -633 247 -197 460 -335 731 -474 453 -233 919 -374 1454
-440 203 -25 714 -25 920 0 647 78 1242 284 1758 609 l93 58 1545 -1542 1545
-1543 599 600 600 600 -1544 1545 -1543 1545 80 130 c308 500 508 1086 583
1710 26 210 26 718 1 925 -65 528 -203 987 -433 1440 -217 428 -460 757 -815
1105 -310 304 -665 558 -1046 749 -460 230 -943 369 -1478 426 -139 14 -546
20 -685 10z m645 -1514 c474 -70 884 -239 1264 -523 153 -114 410 -372 525
-525 675 -905 728 -2121 133 -3063 -160 -254 -430 -548 -659 -719 -803 -599
-1843 -713 -2751 -300 -303 137 -535 301 -787 553 -385 385 -623 826 -734
1359 -42 200 -50 295 -50 542 0 381 53 667 189 1005 141 351 322 623 599 901
230 229 450 388 721 519 321 155 599 230 990 269 83 8 464 -4 560 -18z"/>
</g>
</svg>
